<svg width="461" height="72" viewBox="0 0 461 72" fill="none" xmlns="http://www.w3.org/2000/svg">
<path d="M398.742 25.2109C403.43 25.2109 406.547 25.5156 408.094 26.125V29.5703C406.828 29.7578 405.094 29.875 402.891 29.9219C400.688 29.9219 398.344 29.9453 395.859 29.9922C388.922 30.1328 384.188 30.4844 381.656 31.0469C380.859 34.7969 380.484 37.3516 380.531 38.7109C380.578 40.0703 380.625 41.125 380.672 41.875C380.859 43.7031 380.953 45.8594 380.953 48.3438C384.141 48.3438 387.773 48.0625 391.852 47.5C395.977 46.9375 399.164 46.5391 401.414 46.3047C403.664 46.0234 405.984 45.8828 408.375 45.8828V49.75L381.445 53.125L381.867 64.6562C386.508 64.6562 391.242 64.4453 396.07 64.0234C400.945 63.5547 404.625 63.2266 407.109 63.0391C409.641 62.8047 412.312 62.6875 415.125 62.6875C415.125 63.625 414.844 64.5156 414.281 65.3594C413.156 66.8594 412.148 67.3047 411.258 66.6953C403.008 67.5859 395.625 68.2891 389.109 68.8047C382.641 69.3203 378.281 69.6719 376.031 69.8594L376.312 25C377.531 25.375 379.781 25.5625 383.062 25.5625L398.742 25.2109Z" fill="white"/>
<path d="M417.586 63.7422C417.586 62.8516 417.938 62.0781 418.641 61.4219C419.391 60.7188 419.953 60.25 420.328 60.0156C420.75 59.7344 421.031 59.5234 421.172 59.3828C421.406 63.6484 424.289 65.7812 429.82 65.7812C434.18 65.7812 439.266 64.4219 445.078 61.7031C449.203 59.8281 451.969 57.9062 453.375 55.9375C453.844 55.3281 454.078 54.8359 454.078 54.4609C454.078 54.0391 454.008 53.7109 453.867 53.4766L424.688 46.9375C423.844 46.75 423.023 46.3516 422.227 45.7422C420.773 44.7109 420.047 43.7734 420.047 42.9297C420.047 39.6953 422.344 36.7656 426.938 34.1406C432 31.2812 438.773 29.125 447.258 27.6719C449.18 27.3438 450.609 27.1562 451.547 27.1094C451.828 27.2031 452.25 27.2969 452.812 27.3906C453.422 27.4375 454.031 27.5312 454.641 27.6719C456.094 28 456.703 28.6094 456.469 29.5C456.469 31.0938 453.422 32.3594 447.328 33.2969C439.453 34.4688 434.531 35.4531 432.562 36.25C430.641 37.0469 429.234 37.8672 428.344 38.7109C427.5 39.5547 427.055 40.5625 427.008 41.7344C427.008 41.9688 427.547 42.2266 428.625 42.5078C429.703 42.7891 430.992 43.1406 432.492 43.5625C433.992 43.9375 435.938 44.4531 438.328 45.1094C444.141 46.7031 451.266 48.7188 459.703 51.1562C460.172 52.1875 460.406 53.1484 460.406 54.0391C460.406 56.5234 458.953 58.9141 456.047 61.2109C452.766 63.7891 448.219 65.9688 442.406 67.75C437.578 69.2031 433.734 69.9297 430.875 69.9297C428.484 69.9297 426.211 69.5078 424.055 68.6641C421.898 67.8203 420.281 67 419.203 66.2031C418.125 65.4062 417.586 64.5859 417.586 63.7422Z" fill="white"/>
<path d="M197.742 25.4297C202.43 25.4297 205.547 25.7344 207.094 26.3438V29.7891C205.828 29.9766 204.094 30.0938 201.891 30.1406C199.688 30.1406 197.344 30.1641 194.859 30.2109C187.922 30.3516 183.188 30.7031 180.656 31.2656C179.859 35.0156 179.484 37.5703 179.531 38.9297C179.578 40.2891 179.625 41.3438 179.672 42.0938C179.859 43.9219 179.953 46.0781 179.953 48.5625C183.141 48.5625 186.773 48.2812 190.852 47.7188C194.977 47.1562 198.164 46.7578 200.414 46.5234C202.664 46.2422 204.984 46.1016 207.375 46.1016V49.9688L180.445 53.3438L180.867 64.875C185.508 64.875 190.242 64.6641 195.07 64.2422C199.945 63.7734 203.625 63.4453 206.109 63.2578C208.641 63.0234 211.312 62.9062 214.125 62.9062C214.125 63.8438 213.844 64.7344 213.281 65.5781C212.156 67.0781 211.148 67.5234 210.258 66.9141C202.008 67.8047 194.625 68.5078 188.109 69.0234C181.641 69.5391 177.281 69.8906 175.031 70.0781L175.312 25.2188C176.531 25.5938 178.781 25.7812 182.062 25.7812L197.742 25.4297Z" fill="white"/>
<path d="M223.828 28.3125C226.406 25.8281 231.07 24.5859 237.82 24.5859C242.039 24.5859 245.578 25.0078 248.438 25.8516C251.297 26.6953 253.43 27.5859 254.836 28.5234C256.289 29.4609 257.016 30.4922 257.016 31.6172C257.016 34.1953 254.016 36.75 248.016 39.2812C247.125 39.7031 244.781 40.5703 240.984 41.8828C237.234 43.1484 234.703 44.0156 233.391 44.4844C230.531 45.5625 228.633 46.4062 227.695 47.0156C227.695 47.25 227.789 47.4609 227.977 47.6484C228.164 47.7891 228.609 48.0703 229.312 48.4922C230.016 48.8672 231.07 49.4297 232.477 50.1797C233.883 50.8828 235.828 51.9141 238.312 53.2734C245.719 57.3047 253.336 61.6172 261.164 66.2109C261.539 66.4922 262.031 66.8906 262.641 67.4062C263.25 67.875 263.555 68.4141 263.555 69.0234C263.555 69.5859 263.367 69.9844 262.992 70.2188C262.617 70.4531 262.172 70.6172 261.656 70.7109C261.141 70.8516 260.602 70.9219 260.039 70.9219H258.633C257.695 70.9219 255.727 69.9141 252.727 67.8984C249.773 65.8828 247.195 64.125 244.992 62.625C242.836 61.125 240.633 59.6719 238.383 58.2656C233.086 54.8438 228.891 52.6172 225.797 51.5859V67.6875C225.797 68.625 225 69.0938 223.406 69.0938H222.633C221.648 69.0938 220.922 68.6016 220.453 67.6172C219.797 66.1172 219.469 63.3516 219.469 59.3203L219.68 45.1875C219.68 38.25 219.375 32.1562 218.766 26.9062C219.891 24.9844 221.273 25.0547 222.914 27.1172C223.289 27.5859 223.594 27.9844 223.828 28.3125ZM247.594 29.1562L243.023 29.0859C232.43 29.0859 226.336 30.3047 224.742 32.7422C224.273 33.3984 224.039 34.2422 224.039 35.2734C224.039 36.2578 224.086 37.125 224.18 37.875C224.414 39.7969 224.953 41.1797 225.797 42.0234C225.938 42.0703 226.172 42.0938 226.5 42.0938C226.875 42.0938 227.531 42 228.469 41.8125C229.453 41.625 230.742 41.2969 232.336 40.8281C233.977 40.3125 235.711 39.7031 237.539 39C239.367 38.2969 241.125 37.5703 242.812 36.8203C248.109 34.4297 250.758 32.4844 250.758 30.9844C250.758 30.1406 249.703 29.5312 247.594 29.1562Z" fill="white"/>
<path d="M274.242 68.9531C274.242 69.75 273.68 70.1484 272.555 70.1484C271.711 70.1484 270.703 69.75 269.531 68.9531C268.969 67.6875 268.688 64.6641 268.688 59.8828C268.688 55.1016 268.734 51.1641 268.828 48.0703C268.922 44.9297 269.016 42.0469 269.109 39.4219C269.391 33.7031 269.531 30.6797 269.531 30.3516C270.891 29.5547 272.016 29.1562 272.906 29.1562C273.797 29.1562 274.242 29.5547 274.242 30.3516V68.9531Z" fill="white"/>
<path d="M316.359 44.3438H318.328C319.125 44.3438 319.875 44.4141 320.578 44.5547C321.328 44.6953 321.703 45.2109 321.703 46.1016C322.031 47.9766 320.93 48.8906 318.398 48.8438C317.695 48.7969 317.039 48.75 316.43 48.7031C315.867 48.6562 315.398 48.6562 315.023 48.7031C314.648 48.7031 314.484 48.8203 314.531 49.0547C315 50.4141 315.492 51.9375 316.008 53.625C316.57 55.3125 317.18 57 317.836 58.6875C319.523 62.8594 321.117 65.8594 322.617 67.6875C321.82 68.6719 320.883 69.4922 319.805 70.1484C318.773 70.8047 318.211 71.1328 318.117 71.1328C318.07 71.1328 318.023 71.1094 317.977 71.0625L308.062 50.1797L288.867 54.8906L288.164 57.8438C286.805 63.2344 285.281 66.9844 283.594 69.0938C283.312 69.5625 282.727 69.6094 281.836 69.2344C280.336 68.6719 279.586 68.2031 279.586 67.8281C279.586 67.7344 280.078 66.375 281.062 63.75C282.047 61.125 283.031 58.4766 284.016 55.8047C285.047 53.0859 286.102 50.25 287.18 47.2969C288.305 44.3438 289.359 41.5312 290.344 38.8594C291.328 36.1875 292.219 33.7969 293.016 31.6875C293.812 29.5312 294.375 27.9844 294.703 27.0469C295.031 26.0625 295.242 25.2188 295.336 24.5156C295.477 23.7656 295.664 23.1328 295.898 22.6172C296.367 21.5391 297.539 21 299.414 21C301.43 22.125 302.977 23.6016 304.055 25.4297C305.18 27.2109 306.117 29.1328 306.867 31.1953C307.664 33.2578 308.438 35.3438 309.188 37.4531C309.938 39.5625 310.945 41.4844 312.211 43.2188C312.633 43.875 313.266 44.2266 314.109 44.2734C314.953 44.3203 315.703 44.3438 316.359 44.3438ZM298.781 29.1562C298.406 32.0156 297.562 34.9453 296.25 37.9453C294.938 40.9453 293.883 43.2891 293.086 44.9766C292.289 46.6172 291.609 48.1406 291.047 49.5469C294.234 49.5469 298.148 48.6094 302.789 46.7344C303.961 46.2188 305.086 45.75 306.164 45.3281C303.961 35.9062 301.5 30.5156 298.781 29.1562Z" fill="white"/>
<path d="M6.67969 58.2578L6.96094 63.3906C6.96094 63.6719 6.9375 64.1875 6.89062 64.9375C6.89062 65.6875 6.60938 66.3672 6.04688 66.9766C5.53125 67.5391 4.875 67.8203 4.07812 67.8203C3.32812 67.8203 2.74219 67.7969 2.32031 67.75C0.773438 67.75 0 67.0703 0 65.7109C0 64.5859 0.515625 60.0625 1.54688 52.1406C2.57812 44.1719 3.23438 39.0391 3.51562 36.7422C3.79688 34.4453 4.03125 32.5234 4.21875 30.9766C4.45312 29.3828 4.61719 28.2109 4.71094 27.4609C4.80469 26.7109 4.94531 25.9609 5.13281 25.2109C5.32031 24.4609 5.60156 23.8516 5.97656 23.3828C6.67969 22.4922 8.03906 22.0469 10.0547 22.0469C13.4297 23.7344 16.8984 28.5156 20.4609 36.3906C22.9922 42.0156 24.6797 45.5781 25.5234 47.0781C26.3672 48.5781 27.1875 49.6094 27.9844 50.1719L42.0469 25.7031C43.0312 25 43.7812 24.6484 44.2969 24.6484C45.7969 24.6484 46.9453 25.3281 47.7422 26.6875C48.5391 28.0469 49.1953 29.7109 49.7109 31.6797C50.2734 33.6016 50.7422 35.7344 51.1172 38.0781C51.5391 40.4219 51.8906 42.8828 52.1719 45.4609C52.5 47.9922 52.8047 50.4766 53.0859 52.9141C53.7422 58.7734 54.2344 62.4531 54.5625 63.9531C54.9375 65.4531 55.125 66.5312 55.125 67.1875C55.125 67.7969 54.9141 68.4062 54.4922 69.0156C54.0703 69.5781 53.4844 69.8594 52.7344 69.8594C51.9844 69.8594 51.2344 69.5781 50.4844 69.0156C49.7344 68.4062 49.2656 67.6797 49.0781 66.8359C48.9375 65.9453 48.7734 64.7969 48.5859 63.3906C48.4453 61.9844 48.2578 60.4141 48.0234 58.6797C47.7891 56.8984 47.5547 55.0469 47.3203 53.125C47.0859 51.1562 46.8516 49.2812 46.6172 47.5C46.3828 45.7188 46.1719 44.1484 45.9844 42.7891C45.7969 41.3828 45.6562 40.3281 45.5625 39.625C45.5625 38.6875 45.5391 37.8203 45.4922 37.0234C45.4453 36.2266 45.2578 35.7344 44.9297 35.5469C44.6016 35.3594 44.0859 35.5938 43.3828 36.25C42.7266 36.8594 41.7891 38.125 40.5703 40.0469C37.9453 44.125 34.1484 50.9922 29.1797 60.6484C28.5234 61.8203 27.6562 62.0781 26.5781 61.4219C25.3125 60.7188 24.2344 58.9141 23.3438 56.0078L10.4062 28.5156C9.28125 30.7656 8.25 38.2188 7.3125 50.875C7.17188 52.4219 7.07812 53.7344 7.03125 54.8125C6.79688 55.9844 6.67969 57.1328 6.67969 58.2578Z" fill="white"/>
<path d="M351.373 49C351.221 48.9766 351.086 48.8887 350.969 48.7363C350.863 48.584 350.811 48.4023 350.811 48.1914C351.936 47.5234 352.738 46.9375 353.219 46.4336C353.711 45.918 354.086 45.4082 354.344 44.9043C354.602 44.4004 354.754 43.8262 354.801 43.1816C354.684 43.1699 354.525 43.1641 354.326 43.1641C354.127 43.1641 353.846 43.1934 353.482 43.252C353.131 43.2988 352.75 43.3574 352.34 43.4277C351.402 43.5801 350.799 43.6562 350.529 43.6562C350.26 43.6562 349.99 43.6504 349.721 43.6387C349.463 43.6152 349.152 43.5332 348.789 43.3926C348.438 43.252 348.109 43.0234 347.805 42.707C347.641 42.4844 347.559 42.2852 347.559 42.1094C347.559 41.2422 348.15 40.3867 349.334 39.543C350.295 38.8516 351.25 38.4121 352.199 38.2246C352.434 38.1777 352.65 38.1543 352.85 38.1543C353.061 38.1543 353.26 38.1836 353.447 38.2422C354.818 38.6641 355.697 39.4668 356.084 40.6504C356.225 41.084 356.295 41.4531 356.295 41.7578C356.295 42.0625 356.283 42.3965 356.26 42.7598C356.236 43.123 356.125 43.6152 355.926 44.2363C355.727 44.8457 355.457 45.4316 355.117 45.9941C354.789 46.5566 354.42 47.0547 354.01 47.4883C353.119 48.4492 352.24 48.9531 351.373 49ZM349.211 42.2148C349.75 42.4492 350.418 42.5664 351.215 42.5664C352.375 42.5664 353.547 42.3262 354.73 41.8457C354.777 41.6465 354.801 41.4707 354.801 41.3184C354.801 41.166 354.789 40.9961 354.766 40.8086C354.742 40.6094 354.66 40.3984 354.52 40.1758C354.191 39.6719 353.699 39.3965 353.043 39.3496C351.32 39.3496 350.154 39.8477 349.545 40.8438C349.322 41.2188 349.211 41.6758 349.211 42.2148ZM359.318 48.2266C358.896 47.957 358.562 47.623 358.316 47.2246C358.07 46.8145 357.947 46.375 357.947 45.9062C357.947 45.4375 358.018 44.8809 358.158 44.2363C358.299 43.5918 358.475 42.9941 358.686 42.4434C358.908 41.8926 359.172 41.3594 359.477 40.8438C359.793 40.3281 360.15 39.8711 360.549 39.4727C361.428 38.6172 362.424 38.1895 363.537 38.1895C365.037 38.1895 366.186 38.7402 366.982 39.8418C367.721 40.8379 368.09 42.0742 368.09 43.5508C368.09 45.2969 367.533 46.6562 366.42 47.6289C365.33 48.5664 363.883 49.0352 362.078 49.0352C361.035 49.0352 360.115 48.7656 359.318 48.2266ZM358.984 45.7832C358.984 47.3652 360.109 48.1562 362.359 48.1562C363.977 48.1562 365.189 47.7402 365.998 46.9082C366.818 46.0762 367.229 44.8926 367.229 43.3574C367.229 43.3105 367.229 43.2637 367.229 43.2168C367.229 41.8691 366.895 40.8379 366.227 40.123C365.559 39.4082 364.645 39.0508 363.484 39.0508C363.355 39.0508 363.238 39.0508 363.133 39.0508C363.039 39.0508 362.951 39.0508 362.869 39.0508C362.248 39.0508 361.633 39.4727 361.023 40.3164C360.449 41.0898 359.957 42.0801 359.547 43.2871C359.172 44.3887 358.984 45.2207 358.984 45.7832ZM369.742 43.9902C369.508 43.8145 369.338 43.6387 369.232 43.4629C369.127 43.2871 369.074 43.041 369.074 42.7246C369.074 42.4082 369.145 42.1328 369.285 41.8984C369.531 41.5117 369.883 41.3184 370.34 41.3184C370.949 41.3184 371.436 41.5645 371.799 42.0566C371.963 42.2676 372.062 42.5078 372.098 42.7773C372.098 43.375 371.975 43.7734 371.729 43.9727C371.494 44.1602 371.131 44.2539 370.639 44.2539C370.287 44.2539 369.988 44.166 369.742 43.9902ZM371.271 42.4961C371.002 42.2148 370.715 42.0742 370.41 42.0742C370.047 42.0742 369.83 42.25 369.76 42.6016C369.76 42.6367 369.76 42.7129 369.76 42.8301C369.76 42.9355 369.83 43.1055 369.971 43.3398C370.182 43.5156 370.346 43.6094 370.463 43.6211C370.58 43.6328 370.686 43.6387 370.779 43.6387C370.885 43.6387 370.996 43.5918 371.113 43.498C371.289 43.3809 371.377 43.2285 371.377 43.041C371.377 42.8418 371.342 42.6602 371.271 42.4961Z" fill="white"/>
<path d="M329.789 39.5078L329.648 22L335.273 22.2109C335.273 22.2109 335.081 34.7671 334.957 42.8125C334.833 50.8579 334.641 63.4141 334.641 63.4141L353.168 63.9414L371.695 64.4688C372.445 64.7031 372.82 65.1016 372.82 65.6641C372.82 66.2266 372.469 66.8125 371.766 67.4219C370.406 68.6406 368.859 69.25 367.125 69.25C366.703 69.25 366.258 69.2031 365.789 69.1094L328.031 68.7578C329.203 64.3984 329.789 54.6484 329.789 39.5078Z" fill="white"/>
<path d="M334.957 42.8125L334.889 47.2344C337.337 48.2344 341.642 49.0672 344.389 52.2344C347.465 55.7808 347.385 61.7344 347.889 63.7344L353.168 63.9414C353.168 63.9414 353.168 62.7344 352.664 60.7344C352.16 58.7344 352.24 52.7808 349.164 49.2344C346.417 46.0672 342.112 45.2344 339.664 44.2344C337.216 43.2344 334.957 42.8125 334.957 42.8125Z" fill="white"/>
<path d="M92.5312 65C90.5312 63 91.0312 50 91.0312 47.5C91.0312 45 92.5312 34.3804 92.5312 34.3804C92.5312 34.3804 101.96 34.3804 102.817 34.3804C103.673 34.3804 105.531 34.5 109.031 34C109.031 32.4183 109.396 28.9611 108.531 28.5C106.692 27.5191 102.031 28 102.031 28C102.031 28 93.5312 27.8214 87.1783 28.5C80.8253 29.1786 73.214 30 70.0312 30C66.0312 31.5 62.461 33 60.7063 34.9189C59.3384 37.0881 60.112 37.696 62.461 36.6737C70.6958 33.0677 75.0312 34 75.0312 34C75.3052 35.3114 74.8777 40.5 75.5312 44.5C76.1848 48.5 75.0666 55.4521 74.0312 58.5727C72.9959 61.6932 71.5312 68.5 73.0312 69C74.1475 69.1595 77.5938 69.7111 78.5312 69C79.0312 67.5 80.5209 63.0717 80.201 56.9551C80.1348 55.532 80.055 52.9372 79.9756 50C79.9355 48.5147 79.8954 46.9419 79.8574 45.3888C79.7192 39.7551 79.0312 34 79.0312 34L87.1783 34.3799C87.057 35.8096 86.6578 40.2603 86.4819 45.3888C86.4305 46.8874 86.3982 48.444 86.3974 50C86.3957 53.4618 86.5503 56.9207 86.9989 59.7326C88.394 73.7561 97.1449 72.1942 99.9908 64.2509C100.695 62.054 102.031 58 101.531 57C101.031 56 97.5312 56.9551 97.5312 56.9551C97.6423 57.6594 97.6423 59.1102 97.5312 59.7326C97.1992 61.6531 94.5312 67 92.5312 65Z" fill="white"/>
<path d="M79.9756 50H82.0312H84.5312H86.3974C86.3982 48.444 86.4305 46.8874 86.4819 45.3888H84.5312C84.5312 45.3888 83.5312 45.5 82.0312 45.3888C80.5312 45.2775 79.8574 45.3888 79.8574 45.3888C79.8954 46.9419 79.9355 48.5147 79.9756 50Z" fill="white"/>
<path d="M150.592 48.8362L144.315 48.75C142.669 48.75 140.765 48.8506 138.602 49.0517C138.508 50.1724 138.32 51.6236 138.038 53.4052C137.05 59.727 136.556 63.8362 136.556 65.7328C136.556 67.6006 136.603 68.9224 136.697 69.6983L130.067 70L132.254 48.7069L117.23 46.1897C116.854 46.1897 116.548 46.0029 116.313 45.6293C116.125 45.2558 116.031 44.9109 116.031 44.5948C116.031 44.2787 116.243 43.9339 116.666 43.5604C117.089 43.1868 117.583 43 118.147 43C121.58 43.0862 125.036 45.2299 128.516 45.431C134.958 45.7759 140.436 45.9483 144.95 45.9483L149.323 45.8621C152.755 45.8046 156.164 42.5747 159.55 42.1724C160.302 42.2586 160.773 42.977 160.961 44.3276C161.008 44.615 161.031 44.8448 161.031 45.0173C157.928 45.5632 154.448 48.8362 150.592 48.8362Z" fill="white"/>
<path d="M147.729 24.7306L147.098 26.0109C146.511 27.2003 146.983 28.6807 148.15 29.3108C148.786 29.6546 149.525 29.6895 150.176 29.405C150.828 29.1211 151.31 28.5548 151.499 27.8511C152.531 24.0094 155.546 21.2049 159.368 20.5328L163.687 19.7729C161.034 12.0084 154.263 6.79391 146.778 5.96648L146.33 8.01203C145.56 11.5245 146.037 15.2415 147.673 18.478C148.669 20.4476 148.69 22.785 147.729 24.7306Z" fill="white"/>
<path d="M138.373 33.6986C137.979 33.4862 137.533 33.4427 137.115 33.5759C136.697 33.7091 136.358 34.0031 136.16 34.4038L132.62 41.5761C136.997 45.3565 142.829 47.1687 148.628 46.209L148.503 42.3371C148.474 41.4451 148.091 40.6325 147.424 40.0491C146.757 39.4657 145.918 39.2096 145.063 39.3281C143.738 39.5115 142.406 39.1576 141.314 38.3316C140.223 37.5057 139.491 36.2991 139.254 34.9342C139.163 34.4092 138.833 33.9473 138.373 33.6986Z" fill="white"/>
<path d="M160.006 23.9642C157.456 24.4125 155.445 26.2831 154.757 28.8456C154.298 30.5525 153.128 31.9265 151.548 32.6151C151.373 32.6918 151.194 32.7588 151.014 32.8164C149.573 33.276 148.005 33.1276 146.632 32.3866C143.801 30.8581 142.656 27.2669 144.079 24.3813L144.711 23.1011C145.182 22.1465 145.172 20.9998 144.684 20.0336C142.674 16.0579 142.088 11.4919 143.034 7.17691L143.314 5.89981C141.85 6.00635 140.38 6.28468 138.926 6.7482C137.208 7.29593 135.622 8.06914 134.184 9.02495L135.201 9.91411C136.865 11.3688 138.034 13.3774 138.494 15.5699C138.961 17.799 138.672 20.1335 137.68 22.1436C136.688 24.1537 135.036 25.7524 133.028 26.6451C132.717 26.7832 132.4 26.9039 132.077 27.0067C130.351 27.5572 128.48 27.5991 126.713 27.1138L125.431 26.7619C125.518 28.5409 125.835 30.3414 126.403 32.1233C127.223 34.6947 128.491 36.9953 130.088 38.9629L133.142 32.7745C133.745 31.5522 134.779 30.6553 136.054 30.2488C137.328 29.8424 138.691 29.9753 139.89 30.6227C141.296 31.3815 142.301 32.7908 142.579 34.3924C142.744 35.3387 143.625 36.0051 144.543 35.878C146.341 35.6292 148.177 36.1898 149.578 37.4159C150.98 38.6418 151.819 40.4202 151.879 42.2948L151.978 45.3352C156.244 43.7979 159.656 40.8526 161.888 37.1603L162.647 35.6223L163.406 34.0844C164.727 30.7155 165.17 26.949 164.543 23.1658L160.006 23.9642Z" fill="white"/>
<path d="M126.822 18.2291C126.2 19.8157 125.772 21.4906 125.56 23.2139L127.518 23.7514C130.394 24.5411 133.332 23.2098 134.662 20.5141C135.992 17.8184 135.328 14.5426 133.047 12.548L131.494 11.1902C130.274 12.3694 129.216 13.7037 128.34 15.1532L126.822 18.2291Z" fill="white"/>
</svg>
